<?xml version="1.0" standalone="no"?><!DOCTYPE svg PUBLIC "-//W3C//DTD SVG 1.1//EN" "http://www.w3.org/Graphics/SVG/1.1/DTD/svg11.dtd"><svg t="1712891189939" class="icon" viewBox="0 0 1706 1024" version="1.1" xmlns="http://www.w3.org/2000/svg" p-id="12771" data-spm-anchor-id="a313x.search_index.0.i2.5e843a816jAXaV" xmlns:xlink="http://www.w3.org/1999/xlink" width="333.203125" height="200"><path d="M867.490529 599.284128c-16.721097 0-30.766819-11.370346-30.766819-26.084912V374.55258c0-14.045722 14.045722-26.084912 30.766819-26.084912 16.721097 0 30.766819 11.370346 30.766819 26.084912v198.646636c0 14.714566-13.376878 26.084912-30.766819 26.084912z m-16.052253-40.799477c10.701502-13.376878 28.091444-16.721097 39.461789-7.357283l175.2371 144.470281c10.701502 9.363815 11.370346 26.753756 0.668844 40.130633-10.701502 13.376878-28.091444 16.721097-39.46179 7.357283l-175.237099-144.470281c-11.370346-8.694971-11.370346-26.753756-0.668844-40.130633z m46.819072-348.467669v-58.189418h68.222077c14.045722 0 25.416068-14.045722 25.416068-30.766819 0-16.721097-11.370346-30.766819-25.416068-30.766819H769.170477c-14.045722 0-25.416068 14.045722-25.416068 30.766819 0 16.721097 11.370346 30.766819 25.416068 30.766819h68.222077v58.189418c-185.938602 15.38341-331.746571 171.89288-331.746571 362.51339 0 200.653168 162.529066 363.851078 362.51339 363.851078 199.984324 0 362.51339-163.19791 362.51339-363.851078-0.668844-189.951666-146.476813-346.461137-332.415415-362.51339z m-30.766819 674.863488c-171.89288 0-311.01241-139.788374-311.01241-312.350098 0-172.561724 139.11953-312.350098 311.01241-312.350098s311.01241 139.788374 311.01241 312.350098c0 172.561724-139.11953 312.350098-311.01241 312.350098z m0 0" fill="#2c2c2c" p-id="12772"></path></svg>