<svg width="16" height="17" viewBox="0 0 16 17" fill="none" xmlns="http://www.w3.org/2000/svg">
<path d="M8.49984 5.16675C8.49984 4.89061 8.27598 4.66675 7.99984 4.66675C7.72369 4.66675 7.49984 4.89061 7.49984 5.16675V8.50008C7.49984 8.67248 7.58865 8.83271 7.73484 8.92408L9.73484 10.1741C9.96901 10.3204 10.2775 10.2492 10.4238 10.0151C10.5702 9.78091 10.499 9.47244 10.2648 9.32608L8.49984 8.22296V5.16675Z" fill="#9CA3AF"/>
<path fill-rule="evenodd" clip-rule="evenodd" d="M7.99984 2.66675C4.77818 2.66675 2.1665 5.27842 2.1665 8.50008C2.1665 11.7217 4.77818 14.3334 7.99984 14.3334C11.2215 14.3334 13.8332 11.7217 13.8332 8.50008C13.8332 5.27842 11.2215 2.66675 7.99984 2.66675ZM3.1665 8.50008C3.1665 5.8307 5.33046 3.66675 7.99984 3.66675C10.6692 3.66675 12.8332 5.8307 12.8332 8.50008C12.8332 11.1695 10.6692 13.3334 7.99984 13.3334C5.33046 13.3334 3.1665 11.1695 3.1665 8.50008Z" fill="#9CA3AF"/>
</svg>
